<?xml version="1.0" encoding="UTF-8" standalone="no" ?>
<!DOCTYPE svg PUBLIC "-//W3C//DTD SVG 1.1//EN" "http://www.w3.org/Graphics/SVG/1.1/DTD/svg11.dtd">
<svg xmlns="http://www.w3.org/2000/svg" xmlns:xlink="http://www.w3.org/1999/xlink" version="1.1" width="640" height="338" viewBox="0 0 640 338" xml:space="preserve">
<desc>Created with Fabric.js 3.6.6</desc>
<defs>
</defs>
<g transform="matrix(0.64 0 0 0.64 323.5 320.5)"  >
<g style=""   >
		<g transform="matrix(1 0 0 1 0 0)" id="7"  >
<rect style="stroke: none; stroke-width: 1; stroke-dasharray: none; stroke-linecap: butt; stroke-dashoffset: 0; stroke-linejoin: miter; stroke-miterlimit: 4; fill: rgb(255,255,255); fill-rule: nonzero; opacity: 1; visibility: hidden;" vector-effect="non-scaling-stroke"  x="-540" y="-540" rx="0" ry="0" width="1080" height="1080" />
</g>
		<g transform="matrix(2.6 0 0 2.6 -0.87 -241.3)"  >
<path style="stroke: none; stroke-width: 1; stroke-dasharray: none; stroke-linecap: butt; stroke-dashoffset: 0; stroke-linejoin: miter; stroke-miterlimit: 10; fill: rgb(30,75,142); fill-rule: nonzero; opacity: 1;" vector-effect="non-scaling-stroke"  transform=" translate(-197.76, -123.6)" d="M 10.22 218.422 L 10.22 28.77799999999999 L 385.3 28.77799999999999 L 385.3 218.422 L 365.22 218.422 L 365.22 212.291 L 379.16900000000004 212.291 L 379.16900000000004 34.90899999999999 L 16.351000000000056 34.90899999999999 L 16.351000000000056 212.291 L 134.88700000000006 212.291 L 134.88700000000006 218.422 z" stroke-linecap="round" />
</g>
		<g transform="matrix(2.6 0 0 2.6 135.1 -2.36)"  >
<path style="stroke: none; stroke-width: 1; stroke-dasharray: none; stroke-linecap: butt; stroke-dashoffset: 0; stroke-linejoin: miter; stroke-miterlimit: 10; fill: rgb(61,103,167); fill-rule: nonzero; opacity: 1;" vector-effect="non-scaling-stroke"  transform=" translate(-250.05, -215.49)" d="M 154.361 219.887 L 163.295 219.887 L 163.295 220.861 L 153.28099999999998 220.861 L 153.28099999999998 205.82899999999998 L 163.10399999999998 205.82899999999998 L 163.10399999999998 206.80299999999997 L 154.361 206.80299999999997 L 154.361 212.70999999999998 L 162.003 212.70999999999998 L 162.003 213.641 L 154.361 213.641 z M 181.968 214.531 L 181.968 220.86100000000002 L 180.909 220.86100000000002 L 180.909 214.72100000000003 C 180.909 213.32400000000004 180.694 212.29300000000003 180.265 211.63000000000002 C 179.833 210.967 179.17299999999997 210.63500000000002 178.284 210.63500000000002 L 178.284 210.63500000000002 C 177.381 210.63500000000002 176.57999999999998 210.955 175.88299999999998 211.59600000000003 C 175.183 212.24000000000004 174.69199999999998 213.06200000000004 174.40999999999997 214.06500000000003 L 174.40999999999997 214.06500000000003 L 174.40999999999997 220.86100000000002 L 173.35099999999997 220.86100000000002 L 173.35099999999997 214.72100000000003 C 173.35099999999997 213.31000000000003 173.13899999999998 212.27500000000003 172.71599999999998 211.61700000000002 C 172.29299999999998 210.96200000000002 171.63599999999997 210.63500000000002 170.74699999999999 210.63500000000002 L 170.74699999999999 210.63500000000002 C 169.844 210.63500000000002 169.04299999999998 210.948 168.34599999999998 211.57500000000002 C 167.646 212.204 167.14799999999997 213.02700000000002 166.85199999999998 214.044 L 166.85199999999998 214.044 L 166.85199999999998 220.86100000000002 L 165.79299999999998 220.86100000000002 L 165.79299999999998 209.85200000000003 L 166.78799999999998 209.85200000000003 L 166.78799999999998 212.47700000000003 C 167.254 211.57400000000004 167.85399999999998 210.87800000000004 168.588 210.38900000000004 C 169.322 209.90300000000005 170.126 209.66100000000003 171.001 209.66100000000003 L 171.001 209.66100000000003 C 171.918 209.66100000000003 172.671 209.93200000000002 173.258 210.47400000000002 C 173.842 211.019 174.191 211.74300000000002 174.304 212.64600000000002 L 174.304 212.64600000000002 C 174.826 211.65800000000002 175.447 210.913 176.167 210.411 C 176.887 209.911 177.705 209.662 178.623 209.661 L 178.623 209.661 C 179.23 209.661 179.742 209.77 180.16 209.987 C 180.575 210.207 180.921 210.525 181.197 210.94 C 181.471 211.358 181.668 211.87 181.79 212.477 C 181.909 213.084 181.968 213.768 181.968 214.531 z M 190.542 221.072 L 190.542 221.072 C 189.596 221.072 188.752 220.821 188.01 220.31900000000002 C 187.26999999999998 219.81900000000002 186.67499999999998 219.21 186.22299999999998 218.489 L 186.22299999999998 218.489 L 186.22299999999998 225.37 L 185.164 225.37 L 185.164 209.852 L 186.13799999999998 209.852 L 186.13799999999998 212.054 C 186.58999999999997 211.348 187.18899999999996 210.772 187.938 210.326 C 188.68599999999998 209.88299999999998 189.476 209.661 190.309 209.661 L 190.309 209.661 C 191.085 209.661 191.791 209.819 192.426 210.135 C 193.06099999999998 210.45399999999998 193.61599999999999 210.884 194.08999999999997 211.427 C 194.56099999999998 211.97199999999998 194.92799999999997 212.583 195.19099999999997 213.26 C 195.45099999999996 213.93699999999998 195.58099999999996 214.643 195.58099999999996 215.37699999999998 L 195.58099999999996 215.37699999999998 C 195.58099999999996 216.39299999999997 195.36899999999997 217.33499999999998 194.94499999999996 218.20199999999997 C 194.52199999999996 219.07099999999997 193.93299999999996 219.76699999999997 193.17999999999998 220.28899999999996 C 192.42299999999997 220.81099999999995 191.54399999999998 221.07199999999995 190.54199999999997 221.07199999999995 z M 190.288 220.12 L 190.288 220.12 C 190.937 220.12 191.519 219.98600000000002 192.032 219.717 C 192.549 219.449 192.99 219.08900000000003 193.358 218.638 C 193.725 218.186 194.007 217.678 194.204 217.113 C 194.40200000000002 216.548 194.5 215.97 194.501 215.377 L 194.501 215.377 C 194.501 214.74200000000002 194.388 214.138 194.162 213.565 C 193.936 212.995 193.621 212.49099999999999 193.21800000000002 212.054 C 192.817 211.616 192.35100000000003 211.266 191.82100000000003 211.00300000000001 C 191.29300000000003 210.74300000000002 190.71900000000002 210.61300000000003 190.09700000000004 210.614 L 190.09700000000004 210.614 C 189.71600000000004 210.614 189.30900000000003 210.692 188.87800000000004 210.847 C 188.44900000000004 211.002 188.04100000000005 211.221 187.65400000000005 211.50300000000001 C 187.26400000000007 211.78500000000003 186.94300000000004 212.10600000000002 186.68900000000005 212.46400000000003 C 186.43500000000006 212.82500000000002 186.28000000000006 213.19700000000003 186.22300000000004 213.57800000000003 L 186.22300000000004 213.57800000000003 L 186.22300000000004 217.19800000000004 C 186.47700000000003 217.73400000000004 186.80500000000004 218.22400000000005 187.20500000000004 218.66700000000003 C 187.60900000000004 219.11300000000003 188.07900000000004 219.46600000000004 188.61500000000004 219.72600000000003 C 189.15100000000004 219.98900000000003 189.70900000000003 220.12000000000003 190.28800000000004 220.12000000000003 z M 202.736 221.072 L 202.736 221.072 C 201.95999999999998 221.072 201.244 220.924 200.59 220.62800000000001 C 199.93200000000002 220.33200000000002 199.363 219.918 198.883 219.387 C 198.40300000000002 218.859 198.029 218.249 197.761 217.558 C 197.493 216.86599999999999 197.359 216.14 197.359 215.37699999999998 L 197.359 215.37699999999998 C 197.359 214.60099999999997 197.493 213.86999999999998 197.761 213.18399999999997 C 198.029 212.50099999999998 198.40699999999998 211.89399999999998 198.896 211.36299999999997 C 199.38199999999998 210.83499999999998 199.95299999999997 210.41899999999998 200.611 210.11399999999998 C 201.266 209.81199999999998 201.974 209.66099999999997 202.736 209.66099999999997 L 202.736 209.66099999999997 C 203.498 209.66099999999997 204.20399999999998 209.81199999999998 204.85299999999998 210.11399999999998 C 205.50199999999998 210.41899999999998 206.07399999999998 210.83499999999998 206.56799999999998 211.36299999999997 C 207.06199999999998 211.89399999999998 207.44299999999998 212.50099999999998 207.712 213.18399999999997 C 207.98 213.86999999999998 208.11399999999998 214.60099999999997 208.11399999999998 215.37699999999998 L 208.11399999999998 215.37699999999998 C 208.11399999999998 216.13899999999998 207.98 216.86599999999999 207.712 217.558 C 207.444 218.25 207.06699999999998 218.85899999999998 206.581 219.387 C 206.093 219.918 205.521 220.331 204.86599999999999 220.62800000000001 C 204.208 220.924 203.498 221.073 202.736 221.072 z M 198.417 215.42 L 198.417 215.42 C 198.417 216.28099999999998 198.612 217.06699999999998 199.002 217.778 C 199.389 218.492 199.907 219.06099999999998 200.556 219.48499999999999 C 201.205 219.908 201.925 220.11999999999998 202.715 220.11999999999998 L 202.715 220.11999999999998 C 203.505 220.11999999999998 204.229 219.90399999999997 204.887 219.47199999999998 C 205.542 219.04299999999998 206.064 218.46399999999997 206.454 217.736 C 206.841 217.011 207.03400000000002 216.21699999999998 207.03400000000002 215.356 L 207.03400000000002 215.356 C 207.03400000000002 214.495 206.841 213.70499999999998 206.454 212.98499999999999 C 206.06400000000002 212.265 205.542 211.689 204.887 211.25699999999998 C 204.229 210.82799999999997 203.512 210.61299999999997 202.736 210.61399999999998 L 202.736 210.61399999999998 C 201.946 210.61399999999998 201.226 210.83299999999997 200.577 211.26999999999998 C 199.928 211.70799999999997 199.406 212.28599999999997 199.01 213.00599999999997 C 198.61499999999998 213.72599999999997 198.417 214.52999999999997 198.417 215.41999999999996 z M 220.012 219.696 L 224.204 209.852 L 225.262 209.852 L 220.499 220.861 L 219.567 220.861 L 217.133 215.123 L 214.698 220.861 L 213.76600000000002 220.861 L 209.00300000000001 209.85199999999998 L 210.04000000000002 209.85199999999998 L 214.25300000000001 219.69599999999997 L 216.519 214.31899999999996 L 214.677 209.87299999999996 L 215.629 209.87299999999996 L 217.13299999999998 213.49299999999997 L 218.61499999999998 209.87299999999996 L 219.588 209.87299999999996 L 217.74699999999999 214.31899999999996 z M 231.592 221.072 L 231.592 221.072 C 230.816 221.072 230.096 220.92000000000002 229.43300000000002 220.615 C 228.77 220.31300000000002 228.19500000000002 219.89700000000002 227.71 219.366 C 227.222 218.83800000000002 226.841 218.22400000000002 226.566 217.524 C 226.28900000000002 216.827 226.151 216.09 226.151 215.314 L 226.151 215.314 C 226.151 214.26999999999998 226.38400000000001 213.32399999999998 226.85000000000002 212.477 C 227.31600000000003 211.63 227.95800000000003 210.948 228.77700000000002 210.43200000000002 C 229.596 209.918 230.513 209.66100000000003 231.52900000000002 209.66100000000003 L 231.52900000000002 209.66100000000003 C 232.57300000000004 209.66100000000003 233.49800000000002 209.92200000000003 234.30200000000002 210.44500000000002 C 235.10600000000002 210.967 235.746 211.65500000000003 236.22000000000003 212.50700000000003 C 236.69100000000003 213.36200000000002 236.92700000000002 214.29800000000003 236.92700000000002 215.31400000000002 L 236.92700000000002 215.31400000000002 C 236.92700000000002 215.39900000000003 236.92700000000002 215.48300000000003 236.92700000000002 215.568 C 236.92700000000002 215.65300000000002 236.92000000000002 215.723 236.90600000000003 215.78 L 236.90600000000003 215.78 L 227.25200000000004 215.78 C 227.30800000000005 216.613 227.54100000000003 217.368 227.95100000000005 218.045 C 228.36000000000004 218.72199999999998 228.88700000000006 219.255 229.53000000000006 219.641 C 230.17100000000005 220.03099999999998 230.87200000000007 220.225 231.63500000000005 220.225 L 231.63500000000005 220.225 C 232.39700000000005 220.225 233.11700000000005 220.027 233.79400000000004 219.63299999999998 C 234.47100000000003 219.23799999999997 234.94400000000005 218.73 235.21300000000005 218.10799999999998 L 235.21300000000005 218.10799999999998 L 236.14400000000006 218.36199999999997 C 235.93200000000007 218.88399999999996 235.59800000000007 219.34999999999997 235.14100000000008 219.75999999999996 C 234.68100000000007 220.16899999999995 234.14500000000007 220.48999999999995 233.53200000000007 220.72099999999998 C 232.91700000000006 220.95499999999998 232.27000000000007 221.07199999999997 231.59200000000007 221.07199999999997 z M 227.21 214.954 L 227.21 214.954 L 235.911 214.954 C 235.855 214.09300000000002 235.629 213.33100000000002 235.234 212.667 C 234.839 212.004 234.321 211.481 233.68 211.101 C 233.036 210.72 232.326 210.529 231.55 210.529 L 231.55 210.529 C 230.774 210.529 230.068 210.72 229.43300000000002 211.101 C 228.79800000000003 211.482 228.28300000000002 212.004 227.88700000000003 212.667 C 227.49200000000002 213.33 227.26600000000002 214.093 227.21000000000004 214.954 z M 244.464 209.809 L 244.464 210.804 C 243.476 210.832 242.612 211.124 241.873 211.681 C 241.131 212.24 240.611 213.006 240.315 213.98000000000002 L 240.315 213.98000000000002 L 240.315 220.86100000000002 L 239.256 220.86100000000002 L 239.256 209.85200000000003 L 240.272 209.85200000000003 L 240.272 212.56200000000004 C 240.653 211.78600000000003 241.161 211.15300000000005 241.797 210.66500000000005 C 242.432 210.17900000000006 243.103 209.90100000000004 243.808 209.83100000000005 L 243.808 209.83100000000005 C 243.94899999999998 209.81700000000004 244.076 209.81000000000006 244.189 209.80900000000005 C 244.302 209.80900000000005 244.394 209.80900000000005 244.464 209.80900000000005 z M 247.534 220.861 L 246.476 220.861 L 246.476 209.85199999999998 L 247.534 209.85199999999998 z M 247.534 207.354 L 246.476 207.354 L 246.476 205.406 L 247.534 205.406 z M 259.856 214.531 L 259.856 220.86100000000002 L 258.79699999999997 220.86100000000002 L 258.79699999999997 214.72100000000003 C 258.79699999999997 213.31000000000003 258.597 212.27500000000003 258.19599999999997 211.61700000000002 C 257.792 210.96200000000002 257.15299999999996 210.63500000000002 256.27799999999996 210.63500000000002 L 256.27799999999996 210.63500000000002 C 255.65699999999995 210.63500000000002 255.04699999999997 210.78300000000002 254.44899999999996 211.08 C 253.84799999999996 211.376 253.32599999999996 211.781 252.88199999999995 212.29500000000002 C 252.43599999999995 212.812 252.11399999999995 213.394 251.91599999999994 214.044 L 251.91599999999994 214.044 L 251.91599999999994 220.86100000000002 L 250.85799999999995 220.86100000000002 L 250.85799999999995 209.85200000000003 L 251.85299999999995 209.85200000000003 L 251.85299999999995 212.47700000000003 C 252.14899999999994 211.91200000000003 252.54499999999996 211.42100000000002 253.03899999999996 211.00300000000004 C 253.53299999999996 210.58800000000005 254.08299999999997 210.26100000000005 254.68999999999997 210.02100000000004 C 255.29699999999997 209.78100000000003 255.92499999999998 209.66100000000003 256.57399999999996 209.66100000000003 L 256.57399999999996 209.66100000000003 C 257.181 209.66100000000003 257.693 209.77000000000004 258.11099999999993 209.98700000000002 C 258.52599999999995 210.20700000000002 258.86499999999995 210.52200000000002 259.12699999999995 210.931 C 259.38699999999994 211.34 259.573 211.848 259.686 212.45600000000002 C 259.799 213.06300000000002 259.85499999999996 213.75400000000002 259.856 214.531 z M 267.498 221.03 L 267.498 221.03 C 266.75 221.03 266.056 220.875 265.41499999999996 220.564 C 264.77099999999996 220.253 264.22099999999995 219.826 263.76399999999995 219.281 C 263.304 218.739 262.94399999999996 218.132 262.68399999999997 217.461 C 262.421 216.792 262.28999999999996 216.098 262.28999999999996 215.377 L 262.28999999999996 215.377 C 262.28999999999996 214.62900000000002 262.414 213.90900000000002 262.66299999999995 213.21800000000002 C 262.90899999999993 212.526 263.26099999999997 211.91500000000002 263.72099999999995 211.38500000000002 C 264.17799999999994 210.85700000000003 264.7169999999999 210.43800000000002 265.33899999999994 210.127 C 265.9599999999999 209.816 266.65199999999993 209.661 267.41399999999993 209.661 L 267.41399999999993 209.661 C 268.3739999999999 209.661 269.21099999999996 209.911 269.92499999999995 210.411 C 270.63599999999997 210.913 271.239 211.525 271.73299999999995 212.244 L 271.73299999999995 212.244 L 271.73299999999995 209.852 L 272.70599999999996 209.852 L 272.70599999999996 221.072 C 272.70599999999996 222.06 272.46599999999995 222.893 271.98699999999997 223.571 C 271.50699999999995 224.248 270.87199999999996 224.754 270.08099999999996 225.08599999999998 C 269.29099999999994 225.416 268.43699999999995 225.581 267.52 225.582 L 267.52 225.582 C 266.236 225.582 265.217 225.349 264.462 224.88299999999998 C 263.705 224.41699999999997 263.094 223.80299999999997 262.62899999999996 223.04099999999997 L 262.62899999999996 223.04099999999997 L 263.349 222.55399999999997 C 263.787 223.28799999999998 264.37899999999996 223.83099999999996 265.127 224.18499999999997 C 265.875 224.53799999999998 266.672 224.71399999999997 267.52 224.71399999999997 L 267.52 224.71399999999997 C 268.268 224.71399999999997 268.957 224.57699999999997 269.58599999999996 224.30299999999997 C 270.21299999999997 224.02599999999998 270.71399999999994 223.61699999999996 271.08899999999994 223.07499999999996 C 271.46199999999993 222.52999999999997 271.64799999999997 221.86299999999997 271.64799999999997 221.07199999999995 L 271.64799999999997 221.07199999999995 L 271.64799999999997 218.65899999999993 C 271.21 219.37899999999993 270.61499999999995 219.95299999999995 269.861 220.38199999999995 C 269.104 220.81399999999994 268.317 221.02999999999994 267.498 221.02999999999994 z M 267.752 220.12 L 267.752 220.12 C 268.218 220.12 268.669 220.035 269.107 219.866 C 269.545 219.697 269.947 219.467 270.314 219.175 C 270.68100000000004 218.887 270.98400000000004 218.567 271.22400000000005 218.214 C 271.46400000000006 217.861 271.605 217.508 271.648 217.156 L 271.648 217.156 L 271.648 213.535 C 271.43600000000004 212.97 271.11600000000004 212.465 270.687 212.02 C 270.255 211.577 269.771 211.23100000000002 269.23400000000004 210.982 C 268.69800000000004 210.736 268.14700000000005 210.614 267.583 210.614 L 267.583 210.614 C 266.92 210.614 266.32700000000006 210.755 265.805 211.037 C 265.283 211.31900000000002 264.842 211.689 264.484 212.14700000000002 C 264.123 212.60700000000003 263.847 213.122 263.65799999999996 213.692 C 263.46599999999995 214.26500000000001 263.36999999999995 214.834 263.36999999999995 215.399 L 263.36999999999995 215.399 C 263.36999999999995 216.034 263.48299999999995 216.63400000000001 263.70899999999995 217.198 C 263.93499999999995 217.763 264.24999999999994 218.26600000000002 264.65299999999996 218.71 C 265.054 219.156 265.52 219.502 266.04999999999995 219.747 C 266.578 219.995 267.145 220.12 267.75199999999995 220.12 z M 292.84 216.965 L 292.84 216.965 C 292.84 217.699 292.661 218.358 292.30199999999996 218.943 C 291.941 219.53 291.45399999999995 219.996 290.84099999999995 220.34 C 290.22599999999994 220.687 289.5439999999999 220.861 288.79599999999994 220.861 L 288.79599999999994 220.861 L 281.7679999999999 220.861 L 281.7679999999999 205.82899999999998 L 288.7749999999999 205.82899999999998 C 289.48099999999994 205.82899999999998 290.0919999999999 206.015 290.6089999999999 206.38799999999998 C 291.12299999999993 206.76299999999998 291.5179999999999 207.24299999999997 291.7939999999999 207.82799999999997 C 292.0679999999999 208.41499999999996 292.2049999999999 209.02599999999998 292.2049999999999 209.66099999999997 L 292.2049999999999 209.66099999999997 C 292.2049999999999 210.40899999999996 292.01399999999995 211.10299999999998 291.6329999999999 211.74399999999997 C 291.25199999999995 212.38799999999998 290.7229999999999 212.85799999999998 290.0449999999999 213.15399999999997 L 290.0449999999999 213.15399999999997 C 290.9059999999999 213.40799999999996 291.5879999999999 213.88399999999996 292.0909999999999 214.58099999999996 C 292.5909999999999 215.28099999999995 292.8399999999999 216.07599999999996 292.8399999999999 216.96499999999995 z M 291.76 216.817 L 291.76 216.817 C 291.76 216.281 291.637 215.78 291.392 215.31400000000002 C 291.144 214.848 290.808 214.467 290.384 214.17100000000002 C 289.961 213.87500000000003 289.481 213.72600000000003 288.945 213.72600000000003 L 288.945 213.72600000000003 L 282.847 213.72600000000003 L 282.847 219.88700000000003 L 288.796 219.88700000000003 C 289.346 219.88700000000003 289.847 219.74200000000002 290.299 219.45100000000002 C 290.751 219.163 291.108 218.782 291.371 218.30700000000002 C 291.631 217.836 291.76099999999997 217.33900000000003 291.76 216.817 z M 288.479 206.803 L 282.847 206.803 L 282.847 212.816 L 288.352 212.816 C 288.902 212.816 289.387 212.671 289.804 212.38 C 290.219 212.09199999999998 290.546 211.718 290.786 211.257 C 291.026 210.8 291.146 210.317 291.146 209.809 L 291.146 209.809 C 291.146 209.259 291.033 208.758 290.808 208.306 C 290.582 207.854 290.269 207.49 289.868 207.214 C 289.464 206.94 289.001 206.803 288.479 206.803 z M 300.673 209.809 L 300.673 210.804 C 299.685 210.832 298.821 211.124 298.082 211.681 C 297.34 212.24 296.82 213.006 296.524 213.98000000000002 L 296.524 213.98000000000002 L 296.524 220.86100000000002 L 295.465 220.86100000000002 L 295.465 209.85200000000003 L 296.481 209.85200000000003 L 296.481 212.56200000000004 C 296.86199999999997 211.78600000000003 297.37 211.15300000000005 298.006 210.66500000000005 C 298.64099999999996 210.17900000000006 299.31199999999995 209.90100000000004 300.017 209.83100000000005 L 300.017 209.83100000000005 C 300.158 209.81700000000004 300.28499999999997 209.81000000000006 300.39799999999997 209.80900000000005 C 300.51099999999997 209.80900000000005 300.60299999999995 209.80900000000005 300.67299999999994 209.80900000000005 z M 301.689 217.685 L 301.689 217.685 C 301.689 217.022 301.887 216.446 302.28200000000004 215.957 C 302.677 215.471 303.22100000000006 215.09 303.91200000000003 214.814 C 304.60400000000004 214.54 305.401 214.403 306.305 214.403 L 306.305 214.403 C 306.87 214.403 307.455 214.452 308.062 214.552 C 308.66900000000004 214.65099999999998 309.212 214.785 309.692 214.95399999999998 L 309.692 214.95399999999998 L 309.692 213.91699999999997 C 309.692 212.90099999999998 309.40000000000003 212.08899999999997 308.81600000000003 211.48199999999997 C 308.22900000000004 210.87499999999997 307.42 210.57199999999997 306.389 210.57199999999997 L 306.389 210.57199999999997 C 305.839 210.57199999999997 305.267 210.68499999999997 304.675 210.90999999999997 C 304.082 211.13599999999997 303.475 211.45999999999998 302.854 211.88399999999996 L 302.854 211.88399999999996 L 302.409 211.12199999999996 C 303.129 210.64199999999997 303.825 210.27799999999996 304.497 210.02999999999994 C 305.166 209.78399999999993 305.832 209.66199999999995 306.495 209.66099999999994 L 306.495 209.66099999999994 C 307.808 209.66099999999994 308.845 210.04899999999995 309.607 210.82599999999994 C 310.369 211.60199999999995 310.75 212.66099999999994 310.75100000000003 214.00099999999995 L 310.75100000000003 214.00099999999995 L 310.75100000000003 219.46299999999994 C 310.75100000000003 219.63199999999995 310.79100000000005 219.75899999999993 310.869 219.84399999999994 C 310.94500000000005 219.92899999999995 311.06100000000004 219.97799999999992 311.216 219.99299999999994 L 311.216 219.99299999999994 L 311.216 220.86099999999993 C 311.089 220.87499999999994 310.983 220.88199999999992 310.899 220.88199999999992 C 310.814 220.88199999999992 310.744 220.88199999999992 310.687 220.88199999999992 L 310.687 220.88199999999992 C 310.41900000000004 220.83999999999992 310.211 220.72699999999992 310.065 220.54299999999992 C 309.915 220.35999999999993 309.834 220.15499999999992 309.819 219.92899999999992 L 309.819 219.92899999999992 L 309.819 219.06099999999992 C 309.31100000000004 219.6959999999999 308.659 220.1899999999999 307.863 220.54299999999992 C 307.064 220.89599999999993 306.227 221.07199999999992 305.352 221.07199999999992 L 305.352 221.07199999999992 C 304.65999999999997 221.07199999999992 304.037 220.92399999999992 303.481 220.62799999999993 C 302.92199999999997 220.33199999999994 302.485 219.92499999999993 302.168 219.40799999999993 C 301.849 218.89399999999992 301.69 218.31999999999994 301.689 217.68499999999992 z M 309.269 218.595 L 309.269 218.595 C 309.41 218.412 309.516 218.23499999999999 309.586 218.066 C 309.65700000000004 217.897 309.692 217.741 309.692 217.6 L 309.692 217.6 L 309.692 215.78 C 309.184 215.582 308.65500000000003 215.434 308.104 215.335 C 307.554 215.23600000000002 306.989 215.187 306.411 215.187 L 306.411 215.187 C 305.31 215.187 304.418 215.406 303.735 215.84300000000002 C 303.04900000000004 216.281 302.706 216.87300000000002 302.706 217.621 L 302.706 217.621 C 302.706 218.08700000000002 302.826 218.517 303.06600000000003 218.913 C 303.30600000000004 219.30800000000002 303.64200000000005 219.626 304.07300000000004 219.866 C 304.502 220.10600000000002 304.999 220.22600000000003 305.564 220.22600000000003 L 305.564 220.22600000000003 C 306.35400000000004 220.22600000000003 307.08500000000004 220.07400000000004 307.757 219.76800000000003 C 308.426 219.46600000000004 308.93 219.07500000000002 309.269 218.59500000000003 z M 322.966 214.531 L 322.966 220.86100000000002 L 321.908 220.86100000000002 L 321.908 214.72100000000003 C 321.908 213.31000000000003 321.708 212.27500000000003 321.307 211.61700000000002 C 320.903 210.96200000000002 320.264 210.63500000000002 319.38800000000003 210.63500000000002 L 319.38800000000003 210.63500000000002 C 318.76700000000005 210.63500000000002 318.15700000000004 210.78300000000002 317.559 211.08 C 316.958 211.376 316.43600000000004 211.781 315.99300000000005 212.29500000000002 C 315.547 212.812 315.2250000000001 213.394 315.02700000000004 214.044 L 315.02700000000004 214.044 L 315.02700000000004 220.86100000000002 L 313.96900000000005 220.86100000000002 L 313.96900000000005 209.85200000000003 L 314.96400000000006 209.85200000000003 L 314.96400000000006 212.47700000000003 C 315.26000000000005 211.91200000000003 315.65600000000006 211.42100000000002 316.14900000000006 211.00300000000004 C 316.6430000000001 210.58800000000005 317.19300000000004 210.26100000000005 317.80100000000004 210.02100000000004 C 318.4080000000001 209.78100000000003 319.03600000000006 209.66100000000003 319.68500000000006 209.66100000000003 L 319.68500000000006 209.66100000000003 C 320.2920000000001 209.66100000000003 320.8040000000001 209.77000000000004 321.22200000000004 209.98700000000002 C 321.63700000000006 210.20700000000002 321.97600000000006 210.52200000000002 322.23800000000006 210.931 C 322.49800000000005 211.34 322.6840000000001 211.848 322.7970000000001 212.45600000000002 C 322.9100000000001 213.06300000000002 322.96600000000007 213.75400000000002 322.96600000000007 214.531 z M 325.401 215.377 L 325.401 215.377 C 325.401 214.347 325.62 213.401 326.057 212.54000000000002 C 326.495 211.67900000000003 327.094 210.98300000000003 327.857 210.45300000000003 C 328.619 209.92500000000004 329.487 209.66100000000003 330.461 209.66100000000003 L 330.461 209.66100000000003 C 331.421 209.66100000000003 332.272 209.91500000000002 333.014 210.42300000000003 C 333.754 210.93100000000004 334.33500000000004 211.53800000000004 334.759 212.24400000000003 L 334.759 212.24400000000003 L 334.759 205.40600000000003 L 335.817 205.40600000000003 L 335.817 219.46300000000002 C 335.817 219.63200000000003 335.857 219.75900000000001 335.93600000000004 219.84400000000002 C 336.01200000000006 219.92900000000003 336.12100000000004 219.978 336.26200000000006 219.99300000000002 L 336.26200000000006 219.99300000000002 L 336.26200000000006 220.86100000000002 C 336.03600000000006 220.889 335.8670000000001 220.89600000000002 335.7540000000001 220.882 L 335.7540000000001 220.882 C 335.50000000000006 220.84 335.28800000000007 220.72 335.11800000000005 220.522 C 334.94900000000007 220.32399999999998 334.86400000000003 220.113 334.86400000000003 219.887 L 334.86400000000003 219.887 L 334.86400000000003 218.659 C 334.41200000000003 219.393 333.805 219.97899999999998 333.04400000000004 220.416 C 332.28200000000004 220.85399999999998 331.499 221.072 330.694 221.072 L 330.694 221.072 C 329.932 221.072 329.226 220.913 328.577 220.594 C 327.928 220.278 327.367 219.852 326.896 219.315 C 326.422 218.779 326.055 218.172 325.795 217.494 C 325.53200000000004 216.817 325.401 216.111 325.401 215.377 z M 334.759 217.156 L 334.759 217.156 L 334.759 213.535 C 334.56100000000004 212.999 334.244 212.507 333.80600000000004 212.06199999999998 C 333.36800000000005 211.61899999999997 332.874 211.266 332.324 211.003 C 331.774 210.743 331.23 210.613 330.694 210.61399999999998 L 330.694 210.61399999999998 C 330.059 210.61399999999998 329.48400000000004 210.74799999999996 328.97 211.01599999999996 C 328.45300000000003 211.28399999999996 328.009 211.64399999999995 327.637 212.09599999999998 C 327.262 212.54799999999997 326.975 213.05999999999997 326.777 213.63299999999998 C 326.579 214.20299999999997 326.481 214.79199999999997 326.481 215.39899999999997 L 326.481 215.39899999999997 C 326.481 216.01999999999998 326.594 216.61599999999999 326.819 217.18499999999997 C 327.045 217.75799999999998 327.36 218.26599999999996 327.764 218.70999999999998 C 328.165 219.15599999999998 328.63100000000003 219.50199999999998 329.161 219.74699999999999 C 329.689 219.99499999999998 330.263 220.11999999999998 330.884 220.11999999999998 L 330.884 220.11999999999998 C 331.265 220.11999999999998 331.672 220.04199999999997 332.10400000000004 219.88699999999997 C 332.533 219.73199999999997 332.94200000000006 219.51599999999996 333.33200000000005 219.23899999999998 C 333.71900000000005 218.96499999999997 334.04300000000006 218.64799999999997 334.30500000000006 218.28599999999997 C 334.56500000000005 217.92799999999997 334.71600000000007 217.55099999999996 334.75900000000007 217.15599999999998 z M 342.655 221.072 L 342.655 221.072 C 341.78 221.072 340.96799999999996 220.924 340.22099999999995 220.62800000000001 C 339.47299999999996 220.33200000000002 338.81699999999995 219.88000000000002 338.25199999999995 219.27300000000002 L 338.25199999999995 219.27300000000002 L 338.739 218.532 C 339.346 219.11100000000002 339.96 219.53 340.58099999999996 219.78900000000002 C 341.20199999999994 220.05200000000002 341.87899999999996 220.18300000000002 342.61299999999994 220.18300000000002 L 342.61299999999994 220.18300000000002 C 343.55899999999997 220.18300000000002 344.32499999999993 219.985 344.9119999999999 219.59000000000003 C 345.4959999999999 219.19500000000002 345.7879999999999 218.64400000000003 345.78899999999993 217.93900000000002 L 345.78899999999993 217.93900000000002 C 345.78899999999993 217.45900000000003 345.65199999999993 217.08800000000002 345.37799999999993 216.82500000000002 C 345.10099999999994 216.56500000000003 344.7059999999999 216.354 344.19199999999995 216.19000000000003 C 343.67499999999995 216.02900000000002 343.04999999999995 215.85700000000003 342.31699999999995 215.67400000000004 L 342.31699999999995 215.67400000000004 C 341.56899999999996 215.47600000000003 340.93799999999993 215.27200000000005 340.424 215.06000000000003 C 339.907 214.84800000000004 339.522 214.57300000000004 339.268 214.23400000000004 C 339.01399999999995 213.89500000000004 338.887 213.43700000000004 338.887 212.85800000000003 L 338.887 212.85800000000003 C 338.887 212.13800000000003 339.068 211.54100000000003 339.429 211.06700000000004 C 339.787 210.59600000000003 340.274 210.24300000000002 340.89 210.00800000000004 C 341.503 209.77700000000004 342.183 209.66100000000003 342.931 209.66100000000003 L 342.931 209.66100000000003 C 343.792 209.66100000000003 344.544 209.80200000000002 345.18699999999995 210.08500000000004 C 345.828 210.36700000000005 346.3179999999999 210.74100000000004 346.657 211.20700000000005 L 346.657 211.20700000000005 L 346.085 211.88400000000004 C 345.73199999999997 211.43200000000004 345.27299999999997 211.09600000000003 344.709 210.87600000000003 C 344.144 210.65900000000002 343.523 210.55000000000004 342.846 210.55000000000004 L 342.846 210.55000000000004 C 342.338 210.55000000000004 341.858 210.62100000000004 341.406 210.76200000000003 C 340.954 210.90300000000002 340.592 211.13200000000003 340.318 211.44800000000004 C 340.041 211.76700000000002 339.90299999999996 212.19500000000005 339.90299999999996 212.73100000000002 L 339.90299999999996 212.73100000000002 C 339.90299999999996 213.15400000000002 340.006 213.48600000000002 340.212 213.72600000000003 C 340.41499999999996 213.96600000000004 340.722 214.15900000000002 341.131 214.30600000000004 C 341.53999999999996 214.45600000000005 342.04799999999994 214.61500000000004 342.655 214.78500000000005 L 342.655 214.78500000000005 C 343.51599999999996 214.99700000000004 344.25699999999995 215.21500000000006 344.878 215.44100000000006 C 345.49899999999997 215.66700000000006 345.979 215.95900000000006 346.318 216.31700000000006 C 346.657 216.67800000000005 346.82599999999996 217.18400000000005 346.82599999999996 217.83300000000006 L 346.82599999999996 217.83300000000006 C 346.82599999999996 218.83500000000006 346.445 219.62500000000006 345.683 220.20400000000006 C 344.921 220.78300000000007 343.912 221.07200000000006 342.655 221.07200000000006 z" stroke-linecap="round" />
</g>
		<g transform="matrix(3.72 0 0 3.72 -1.86 -232.21)"  >
<path style="stroke: none; stroke-width: 1; stroke-dasharray: none; stroke-linecap: butt; stroke-dashoffset: 0; stroke-linejoin: miter; stroke-miterlimit: 4; fill: rgb(30,75,142); fill-rule: nonzero; opacity: 1;" vector-effect="non-scaling-stroke"  transform=" translate(-110.24, 23.3)" d="M 11.6 0.25 Q 9.75 0.25 8.95 -0.58 Q 8.15 -1.4 8.15 -3.7 L 8.15 -3.7 Q 8.15 -5.25 8.47 -7.68 Q 8.8 -10.1 9.55 -14.35 L 9.55 -14.35 Q 10.85 -22.2 11.6 -27.95 L 11.6 -27.95 Q 12.05 -31.55 12.05 -33.95 L 12.05 -33.95 Q 12.05 -36.2 10.4 -36.2 L 10.4 -36.2 Q 9.1 -36.2 7.28 -34.88 Q 5.45 -33.55 3.25 -30.65 L 3.25 -30.65 Q 2.55 -29.7 1.7 -29.7 L 1.7 -29.7 Q 1 -29.7 0.48 -30.38 Q -0.05 -31.05 -0.05 -31.9 L -0.05 -31.9 Q -0.05 -32.7 0.28 -33.52 Q 0.6 -34.35 1.35 -35.4 L 1.35 -35.4 Q 3.75 -38.75 6.7 -40.58 Q 9.65 -42.4 12.6 -42.4 L 12.6 -42.4 Q 15.35 -42.4 16.82 -40.65 Q 18.3 -38.9 18.3 -35.55 L 18.3 -35.55 Q 18.3 -34.2 18.05 -32.38 Q 17.8 -30.55 17.6 -29.4 Q 17.4 -28.25 17.3 -27.8 L 17.3 -27.8 Q 20.15 -35.95 23.7 -39.18 Q 27.25 -42.4 31.5 -42.4 L 31.5 -42.4 Q 34.75 -42.4 36.63 -40.1 Q 38.5 -37.8 38.5 -33.6 L 38.5 -33.6 Q 38.5 -31.95 38.05 -29.5 L 38.05 -29.5 Q 40.55 -36.4 43.9 -39.4 Q 47.25 -42.4 51.6 -42.4 L 51.6 -42.4 Q 55.1 -42.4 56.98 -40.15 Q 58.85 -37.9 58.85 -33.85 L 58.85 -33.85 Q 58.85 -31.65 58.2 -28.5 L 58.2 -28.5 L 55.15 -14.2 Q 54.65 -11.7 54.65 -9.9 L 54.65 -9.9 Q 54.65 -7.8 55.63 -6.75 Q 56.6 -5.7 58.35 -5.7 L 58.35 -5.7 Q 60 -5.7 61.58 -6.8 Q 63.15 -7.9 65.3 -10.45 L 65.3 -10.45 Q 65.9 -11.15 66.65 -11.15 L 66.65 -11.15 Q 67.3 -11.15 67.67 -10.55 Q 68.05 -9.95 68.05 -8.9 L 68.05 -8.9 Q 68.05 -6.95 67.1 -5.8 L 67.1 -5.8 Q 64.5 -2.65 61.95 -1.2 Q 59.4 0.25 56.6 0.25 L 56.6 0.25 Q 52.35 0.25 49.95 -2.27 Q 47.55 -4.8 47.55 -9.05 L 47.55 -9.05 Q 47.55 -12 48.75 -17.6 L 48.75 -17.6 L 50.75 -26.75 Q 50.85 -27.2 51.1 -28.35 Q 51.35 -29.5 51.5 -30.53 Q 51.65 -31.55 51.65 -32.55 L 51.65 -32.55 Q 51.65 -34.3 50.98 -35.18 Q 50.3 -36.05 49.05 -36.05 L 49.05 -36.05 Q 46.7 -36.05 44.13 -33.02 Q 41.55 -30 39.23 -23 Q 36.9 -16 35.45 -4.8 L 35.45 -4.8 Q 35.1 -1.8 34.23 -0.78 Q 33.35 0.25 31.4 0.25 L 31.4 0.25 Q 29.7 0.25 28.93 -0.55 Q 28.15 -1.35 28.15 -3.55 L 28.15 -3.55 Q 28.15 -5.6 28.7 -8.93 Q 29.25 -12.25 30.1 -16.75 L 30.1 -16.75 Q 32.4 -28.85 32.4 -32.35 L 32.4 -32.35 Q 32.4 -34.25 31.68 -35.15 Q 30.95 -36.05 29.5 -36.05 L 29.5 -36.05 Q 27.05 -36.05 24.45 -33.27 Q 21.85 -30.5 19.38 -23.43 Q 16.9 -16.35 15.25 -4.3 L 15.25 -4.3 Q 14.9 -1.75 14.23 -0.75 Q 13.55 0.25 11.6 0.25 L 11.6 0.25 Z M 70.55 -26.6 Q 68.45 -26.6 67.4 -27.58 Q 66.35 -28.55 66.35 -30.3 L 66.35 -30.3 Q 66.35 -32.05 67.72 -33.23 Q 69.1 -34.4 71.15 -34.4 L 71.15 -34.4 Q 73 -34.4 74.15 -33.5 Q 75.3 -32.6 75.3 -30.95 L 75.3 -30.95 Q 75.3 -28.95 74 -27.78 Q 72.7 -26.6 70.55 -26.6 L 70.55 -26.6 Z M 70.15 0.25 Q 66.9 0.25 65.42 -2.05 Q 63.95 -4.35 63.95 -8.15 L 63.95 -8.15 Q 63.95 -10.4 64.52 -13.93 Q 65.1 -17.45 66 -20.5 L 66 -20.5 Q 66.45 -22.1 67.2 -22.7 Q 67.95 -23.3 69.6 -23.3 L 69.6 -23.3 Q 72.15 -23.3 72.15 -21.6 L 72.15 -21.6 Q 72.15 -20.35 71.2 -15.8 L 71.2 -15.8 Q 70 -10.3 70 -8.35 L 70 -8.35 Q 70 -6.85 70.4 -6.05 Q 70.8 -5.25 71.75 -5.25 L 71.75 -5.25 Q 72.65 -5.25 74 -6.5 Q 75.35 -7.75 77.6 -10.45 L 77.6 -10.45 Q 78.2 -11.15 78.95 -11.15 L 78.95 -11.15 Q 79.6 -11.15 79.97 -10.55 Q 80.35 -9.95 80.35 -8.9 L 80.35 -8.9 Q 80.35 -6.9 79.4 -5.8 L 79.4 -5.8 Q 74.45 0.25 70.15 0.25 L 70.15 0.25 Z M 104.7 -11.15 Q 105.35 -11.15 105.72 -10.55 Q 106.1 -9.95 106.1 -8.9 L 106.1 -8.9 Q 106.1 -6.9 105.15 -5.8 L 105.15 -5.8 Q 103.1 -3.3 100.65 -1.53 Q 98.2 0.25 95.8 0.25 L 95.8 0.25 Q 92 0.25 90 -4.2 L 90 -4.2 Q 87.9 -1.55 86.32 -0.65 Q 84.75 0.25 82.65 0.25 L 82.65 0.25 Q 79.6 0.25 77.62 -2.02 Q 75.65 -4.3 75.65 -7.95 L 75.65 -7.95 Q 75.65 -11.95 77.35 -15.38 Q 79.05 -18.8 82.02 -20.98 Q 85 -23.15 88.7 -23.55 L 88.7 -23.55 Q 89.65 -33.25 92.32 -40.13 Q 95 -47 99.35 -47 L 99.35 -47 Q 101.5 -47 102.92 -45.05 Q 104.35 -43.1 104.35 -39.15 L 104.35 -39.15 Q 104.35 -33.55 101.6 -26.05 Q 98.85 -18.55 94.25 -10.65 L 94.25 -10.65 Q 94.45 -7.75 95.12 -6.5 Q 95.8 -5.25 96.85 -5.25 L 96.85 -5.25 Q 98.2 -5.25 99.6 -6.45 Q 101 -7.65 103.35 -10.45 L 103.35 -10.45 Q 103.95 -11.15 104.7 -11.15 L 104.7 -11.15 Z M 98.8 -42.1 Q 97.85 -42.1 96.9 -38.73 Q 95.95 -35.35 95.27 -29.9 Q 94.6 -24.45 94.3 -18.5 L 94.3 -18.5 Q 99.9 -30.7 99.9 -38.1 L 99.9 -38.1 Q 99.9 -40 99.57 -41.05 Q 99.25 -42.1 98.8 -42.1 L 98.8 -42.1 Z M 84.4 -4.8 Q 85.35 -4.8 86.3 -5.58 Q 87.25 -6.35 88.7 -8.45 L 88.7 -8.45 Q 88.2 -11.15 88.2 -14.5 L 88.2 -14.5 Q 88.2 -15.7 88.3 -18.4 L 88.3 -18.4 Q 85.55 -17.55 83.72 -14.73 Q 81.9 -11.9 81.9 -8.45 L 81.9 -8.45 Q 81.9 -4.8 84.4 -4.8 L 84.4 -4.8 Z M 129.79 -11.15 Q 130.44 -11.15 130.82 -10.55 Q 131.19 -9.95 131.19 -8.9 L 131.19 -8.9 Q 131.19 -6.9 130.24 -5.8 L 130.24 -5.8 Q 127.94 -3.15 125.52 -1.45 Q 123.09 0.25 119.99 0.25 L 119.99 0.25 Q 117.44 0.25 116.14 -1.23 Q 114.84 -2.7 114.84 -5.5 L 114.84 -5.5 Q 114.84 -6.9 115.54 -10.5 L 115.54 -10.5 Q 116.19 -13.65 116.19 -14.85 L 116.19 -14.85 Q 116.19 -15.65 115.64 -15.65 L 115.64 -15.65 Q 114.99 -15.65 113.79 -13.98 Q 112.59 -12.3 111.39 -9.55 Q 110.19 -6.8 109.44 -3.75 L 109.44 -3.75 Q 108.49 0.25 104.74 0.25 L 104.74 0.25 Q 103.24 0.25 102.77 -0.83 Q 102.29 -1.9 102.29 -4.7 L 102.29 -4.7 Q 102.29 -6.3 102.34 -7.25 L 102.34 -7.25 L 102.39 -11.25 Q 102.39 -18.95 103.97 -27.3 Q 105.54 -35.65 108.62 -41.33 Q 111.69 -47 115.99 -47 L 115.99 -47 Q 118.29 -47 119.72 -45.03 Q 121.14 -43.05 121.14 -39.9 L 121.14 -39.9 Q 121.14 -34.85 118.19 -29.43 Q 115.24 -24 108.59 -16.75 L 108.59 -16.75 Q 108.44 -14.15 108.44 -11.4 L 108.44 -11.4 Q 110.09 -15.65 112.12 -18.32 Q 114.14 -21 116.12 -22.15 Q 118.09 -23.3 119.74 -23.3 L 119.74 -23.3 Q 122.99 -23.3 122.99 -20.05 L 122.99 -20.05 Q 122.99 -18.1 121.89 -13 L 121.89 -13 Q 120.94 -8.65 120.94 -7.25 L 120.94 -7.25 Q 120.94 -5.25 122.39 -5.25 L 122.39 -5.25 Q 123.39 -5.25 124.77 -6.48 Q 126.14 -7.7 128.44 -10.45 L 128.44 -10.45 Q 129.04 -11.15 129.79 -11.15 L 129.79 -11.15 Z M 114.94 -42.05 Q 114.04 -42.05 112.94 -39.48 Q 111.84 -36.9 110.82 -32.52 Q 109.79 -28.15 109.14 -23 L 109.14 -23 Q 112.24 -26.65 114.27 -30.95 Q 116.29 -35.25 116.29 -38.75 L 116.29 -38.75 Q 116.29 -40.35 115.94 -41.2 Q 115.59 -42.05 114.94 -42.05 L 114.94 -42.05 Z M 132.24 0.25 Q 129.99 0.25 128.56 -1.83 Q 127.14 -3.9 127.14 -7 L 127.14 -7 Q 127.14 -10.75 127.64 -13.88 Q 128.14 -17 129.29 -20.5 L 129.29 -20.5 Q 129.79 -22 130.69 -22.65 Q 131.59 -23.3 133.54 -23.3 L 133.54 -23.3 Q 134.64 -23.3 135.06 -22.95 Q 135.49 -22.6 135.49 -21.9 L 135.49 -21.9 Q 135.49 -21.5 134.94 -19.2 L 134.94 -19.2 Q 134.44 -17.35 134.14 -15.85 L 134.14 -15.85 Q 133.14 -10.6 133.14 -8.85 L 133.14 -8.85 Q 133.14 -7.8 133.39 -7.38 Q 133.64 -6.95 134.19 -6.95 L 134.19 -6.95 Q 134.94 -6.95 136.06 -8.45 Q 137.19 -9.95 138.47 -13 Q 139.74 -16.05 140.94 -20.5 L 140.94 -20.5 Q 141.34 -22 142.17 -22.65 Q 142.99 -23.3 144.64 -23.3 L 144.64 -23.3 Q 145.79 -23.3 146.24 -23.03 Q 146.69 -22.75 146.69 -22 L 146.69 -22 Q 146.69 -20.75 145.44 -15.15 L 145.44 -15.15 Q 144.04 -8.75 144.04 -7.25 L 144.04 -7.25 Q 144.04 -6.3 144.44 -5.78 Q 144.84 -5.25 145.49 -5.25 L 145.49 -5.25 Q 146.49 -5.25 147.87 -6.48 Q 149.24 -7.7 151.54 -10.45 L 151.54 -10.45 Q 152.14 -11.15 152.89 -11.15 L 152.89 -11.15 Q 153.54 -11.15 153.92 -10.55 Q 154.29 -9.95 154.29 -8.9 L 154.29 -8.9 Q 154.29 -6.9 153.34 -5.8 L 153.34 -5.8 Q 151.19 -3.15 148.72 -1.45 Q 146.24 0.25 143.09 0.25 L 143.09 0.25 Q 140.69 0.25 139.56 -1.6 Q 138.44 -3.45 138.44 -6.8 L 138.44 -6.8 Q 137.59 -3.4 135.89 -1.58 Q 134.19 0.25 132.24 0.25 L 132.24 0.25 Z M 153.79 0.25 Q 151.89 0.25 151.11 -1.75 Q 150.34 -3.75 150.34 -8.15 L 150.34 -8.15 Q 150.34 -14.65 152.19 -20.5 L 152.19 -20.5 Q 152.64 -21.95 153.66 -22.63 Q 154.69 -23.3 156.54 -23.3 L 156.54 -23.3 Q 157.54 -23.3 157.94 -23.05 Q 158.34 -22.8 158.34 -22.1 L 158.34 -22.1 Q 158.34 -21.3 157.59 -18.5 L 157.59 -18.5 Q 157.09 -16.5 156.79 -15 Q 156.49 -13.5 156.29 -11.3 L 156.29 -11.3 Q 157.94 -15.6 159.99 -18.3 Q 162.04 -21 164.01 -22.15 Q 165.99 -23.3 167.64 -23.3 L 167.64 -23.3 Q 170.89 -23.3 170.89 -20.05 L 170.89 -20.05 Q 170.89 -18.1 169.79 -13 L 169.79 -13 Q 168.84 -8.65 168.84 -7.25 L 168.84 -7.25 Q 168.84 -5.25 170.29 -5.25 L 170.29 -5.25 Q 171.29 -5.25 172.66 -6.48 Q 174.04 -7.7 176.34 -10.45 L 176.34 -10.45 Q 176.94 -11.15 177.69 -11.15 L 177.69 -11.15 Q 178.34 -11.15 178.71 -10.55 Q 179.09 -9.95 179.09 -8.9 L 179.09 -8.9 Q 179.09 -6.9 178.14 -5.8 L 178.14 -5.8 Q 175.99 -3.15 173.51 -1.45 Q 171.04 0.25 167.89 0.25 L 167.89 0.25 Q 165.34 0.25 164.04 -1.23 Q 162.74 -2.7 162.74 -5.5 L 162.74 -5.5 Q 162.74 -6.9 163.44 -10.5 L 163.44 -10.5 Q 164.09 -13.65 164.09 -14.85 L 164.09 -14.85 Q 164.09 -15.65 163.54 -15.65 L 163.54 -15.65 Q 162.89 -15.65 161.71 -13.98 Q 160.54 -12.3 159.31 -9.55 Q 158.09 -6.8 157.34 -3.75 L 157.34 -3.75 Q 156.79 -1.4 156.06 -0.58 Q 155.34 0.25 153.79 0.25 L 153.79 0.25 Z M 202.23 0.4 Q 195.58 0.4 191.58 -2.13 Q 187.58 -4.65 187.58 -9.85 L 187.58 -9.85 Q 187.58 -12.6 188.53 -14.05 Q 189.48 -15.5 191.33 -15.5 L 191.33 -15.5 Q 192.68 -15.5 193.53 -14.8 Q 194.38 -14.1 194.38 -13 L 194.38 -13 Q 194.38 -12 194.23 -11.25 L 194.23 -11.25 Q 194.23 -11.05 194.16 -10.55 Q 194.08 -10.05 194.08 -9.5 L 194.08 -9.5 Q 194.08 -7.25 196.36 -6.15 Q 198.63 -5.05 202.73 -5.05 L 202.73 -5.05 Q 206.98 -5.05 209.38 -6.58 Q 211.78 -8.1 211.78 -10.85 L 211.78 -10.85 Q 211.78 -12.55 210.68 -13.78 Q 209.58 -15 207.93 -15.83 Q 206.28 -16.65 203.28 -17.85 L 203.28 -17.85 Q 199.43 -19.35 197.01 -20.7 Q 194.58 -22.05 192.86 -24.38 Q 191.13 -26.7 191.13 -30.15 L 191.13 -30.15 Q 191.13 -33.75 193.06 -36.55 Q 194.98 -39.35 198.61 -40.9 Q 202.23 -42.45 207.13 -42.45 L 207.13 -42.45 Q 210.78 -42.45 213.83 -41.38 Q 216.88 -40.3 218.71 -38.1 Q 220.53 -35.9 220.53 -32.7 L 220.53 -32.7 Q 220.53 -29.55 219.58 -27.95 Q 218.63 -26.35 216.78 -26.35 L 216.78 -26.35 Q 215.48 -26.35 214.61 -27.15 Q 213.73 -27.95 213.73 -29.05 L 213.73 -29.05 Q 213.73 -30 213.88 -30.8 L 213.88 -30.8 Q 214.03 -32.3 214.03 -32.7 L 214.03 -32.7 Q 214.03 -34.8 211.98 -35.9 Q 209.93 -37 206.88 -37 L 206.88 -37 Q 202.58 -37 200.31 -35.43 Q 198.03 -33.85 198.03 -31 L 198.03 -31 Q 198.03 -29.1 199.21 -27.75 Q 200.38 -26.4 202.13 -25.5 Q 203.88 -24.6 207.03 -23.35 L 207.03 -23.35 Q 210.83 -21.8 213.13 -20.55 Q 215.43 -19.3 217.06 -17.15 Q 218.68 -15 218.68 -11.85 L 218.68 -11.85 Q 218.68 -5.95 214.21 -2.78 Q 209.73 0.4 202.23 0.4 L 202.23 0.4 Z" stroke-linecap="round" />
</g>
		<g transform="matrix(2.6 0 0 2.6 -0.87 -232)"  >
<rect style="stroke: none; stroke-width: 1; stroke-dasharray: none; stroke-linecap: butt; stroke-dashoffset: 0; stroke-linejoin: miter; stroke-miterlimit: 4; fill: none; fill-rule: nonzero; opacity: 1;" vector-effect="non-scaling-stroke"  x="-187.54" y="-98.4" rx="0" ry="0" width="375.08" height="196.8" />
</g>
</g>
</g>
</svg>